<?xml version="1.0" encoding="utf-8"?>
<!-- Generator: Adobe Illustrator 19.0.0, SVG Export Plug-In . SVG Version: 6.00 Build 0)  -->
<svg version="1.1" id="layer" xmlns="http://www.w3.org/2000/svg" xmlns:xlink="http://www.w3.org/1999/xlink" x="0px" y="0px"
	 viewBox="-153 -46 652 652" style="enable-background:new -153 -46 652 652;" xml:space="preserve">
<style type="text/css">
	.st0{fill:#1FBAD6;}
	.st1{fill:#535C6C;}
</style>
<path id="Combined-Shape" class="st0" d="M78.1,234.1v39h8l13.8-21.3h13.4l-17,25.8l17.6,30.9h-13.5l-14.2-25.5h-8v25.5H66.3v-73.8
	L78.1,234.1z M148.2,309.6c-18.9,0-27.1-10.1-27.1-30.4c0-18,7.8-28.3,24-28.3c13.8,0,22.6,8.2,22.6,26.3c0,1.8-0.1,4.1-0.3,5.8
	h-34.1c0.6,11.9,5.5,16,16.2,16c5.5,0,10.3-1,15.1-3.1l1.4,9.9C161.3,308.1,155.1,309.6,148.2,309.6z M133.1,274.8h23.7
	c-0.2-10-4.7-13.8-11.6-13.8C137.1,261,133.6,265.2,133.1,274.8z M229.6,280.1c0,20.5-8.5,29.5-21.8,29.5c-5.3,0-10.2-1.3-14-5.3
	l-0.3,0.1l0.2,7.6v10.7h-12v-70.6l8.4-0.6l2.3,5.4c4-3.9,9.6-6.1,15.8-6.1C222.1,250.8,229.6,258.3,229.6,280.1z M217.4,280
	c0-14.4-4-18.3-12.2-18.3c-5,0-9,2.1-11.5,5.6v26.3c2,3.2,5.6,5.8,11.1,5.8C212.3,299.3,217.4,295.7,217.4,280z M257.1,308.5h-11.9
	v-73.8l11.9-0.7V308.5z M299.8,309.6c-18.9,0-27.1-10.1-27.1-30.4c0-18,7.8-28.3,24-28.3c13.8,0,22.6,8.2,22.6,26.3
	c0,1.8-0.1,4.1-0.3,5.8H285c0.6,11.9,5.5,16,16.2,16c5.5,0,10.3-1,15.1-3.1l1.4,9.9C312.9,308.1,306.8,309.6,299.8,309.6z
	 M284.7,274.8h23.7c-0.2-10-4.7-13.8-11.6-13.8C288.7,261,285.3,265.2,284.7,274.8z M345.2,308.5h-11.8v-56.4l9.5-0.6l1,10.7h0.3
	c3.4-7.4,9.2-11.3,16.1-11.3c2.3,0,4.4,0.3,5.9,0.8l-0.7,12.2c-1.8-0.6-3.8-0.9-5.9-0.9c-8.1,0-14.3,6.4-14.3,17.1V308.5z
	 M382.3,302.5c0,4.4-2.2,7.1-7.2,7.1c-5,0-7.2-2-7.2-7.1c0-4.6,2.1-7.2,7.2-7.2C380.1,295.3,382.3,297.9,382.3,302.5z M417.3,285.2
	c-2.5,0-5-0.2-7.4-0.7c-1.9,0.8-3,2-3,3.4c0,1.6,1.3,2.9,4.2,3.1l13.5,0.9c13.3,0.9,18.1,5.7,18.1,14c0,10.9-7,17.8-24.9,17.8
	c-15.6,0-22.3-6.2-22.3-15c0-3.7,1.7-7.2,4.8-9.8c-2.5-1.6-4.4-4.3-4.4-8.1s2.2-7.3,6.9-9.2l0.1-0.2c-3.9-2.5-6.4-6.7-6.4-13.3
	c0-10.5,5.7-17.3,20.7-17.3c4.8,0,10,0.8,13.9,3.3l9.3-3.4l2.5,5.9l-6.2,4.7c0.7,1.9,1.1,4.1,1.1,6.8
	C437.9,279,432.2,285.2,417.3,285.2z M422.6,302.3l-13.5-1c-2.1,1.8-3.4,4.1-3.4,6c0,4.7,3.4,7.3,11.8,7.3c11.5,0,14.4-2.7,14.4-6.8
	C432,304.6,430.2,302.9,422.6,302.3z M417.4,260.1c-6.7,0-9.1,2.6-9.1,8.3c0,6.6,3.6,8.3,8.8,8.3c7.3,0,9.4-2.5,9.4-8.3
	C426.5,262.3,423.8,260.1,417.4,260.1z M468.5,308.5h-11.9v-73.8l11.9-0.7V308.5z"/>
<rect x="-116.5" y="239.1" transform="matrix(0.7071 -0.7071 0.7071 0.7071 -218.1829 23.8759)" class="st1" width="72.5" height="72.5"/>
<rect x="-66.8" y="239.1" transform="matrix(0.7071 -0.7071 0.7071 0.7071 -203.6206 59.0323)" class="st0" width="72.5" height="72.5"/>
</svg>
